<?xml version="1.0" encoding="iso-8859-1"?>
<!-- Generator: Adobe Illustrator 19.0.0, SVG Export Plug-In . SVG Version: 6.00 Build 0)  -->
<svg version="1.1" id="Capa_1" xmlns="http://www.w3.org/2000/svg" xmlns:xlink="http://www.w3.org/1999/xlink" x="0px" y="0px"
	 viewBox="0 0 512 512" style="enable-background:new 0 0 512 512;" xml:space="preserve">
<g>
	<path style="fill:#DBD9DC;" d="M249.27,0.092C118.827,3.669,16.516,113.974,16.516,244.466l0,143.663
		c0,31.926,25.881,57.806,57.806,57.806h41.29c9.122,0,16.516,7.395,16.516,16.516v24.774c0,13.682,11.092,24.774,24.774,24.774
		h198.194c13.682,0,24.774-11.092,24.774-24.774v-24.774c0-9.122,7.395-16.516,16.516-16.516h41.29
		c31.926,0,57.806-25.881,57.806-57.806V239.483C495.484,104.984,384.607-3.618,249.27,0.092z"/>
	<path style="fill:#C9C6CA;" d="M140.387,421.161L140.387,421.161c-22.804,0-41.29-18.486-41.29-41.29V244.466
		c0-118.778,84.778-220.798,198.369-240.86c-21.543-3.761-44.058-4.697-67.18-2.249c-122.57,12.979-213.77,119.853-213.77,243.108
		l0,143.663c0,31.926,25.881,57.806,57.806,57.806h41.29c9.122,0,16.516,7.395,16.516,16.516v24.774
		c0,13.682,11.092,24.774,24.774,24.774h24.774v-49.548C181.677,439.648,163.191,421.161,140.387,421.161z"/>
	<path style="fill:#867E88;" d="M248.369,364.564l-26.173,63.274c-2.793,6.752,3.914,13.538,10.698,10.824l16.972-6.789
		c3.938-1.575,8.33-1.575,12.268,0l16.972,6.789c6.784,2.714,13.491-4.072,10.698-10.824l-26.173-63.274
		C260.817,357.762,251.183,357.762,248.369,364.564z"/>
	<circle style="fill:#867E88;" cx="148.645" cy="289.032" r="74.323"/>
	<path style="fill:#6F6571;" d="M148.645,247.742c35.363,0,64.898,24.72,72.417,57.806c1.209-5.319,1.905-10.832,1.905-16.516
		c0-41.047-33.275-74.323-74.323-74.323s-74.323,33.275-74.323,74.323c0,5.684,0.697,11.197,1.905,16.516
		C83.747,272.462,113.282,247.742,148.645,247.742z"/>
	<circle style="fill:#867E88;" cx="363.355" cy="289.032" r="74.323"/>
	<path style="fill:#6F6571;" d="M363.355,247.742c35.363,0,64.898,24.72,72.417,57.806c1.209-5.319,1.905-10.832,1.905-16.516
		c0-41.047-33.275-74.323-74.323-74.323s-74.323,33.275-74.323,74.323c0,5.684,0.697,11.197,1.905,16.516
		C298.457,272.462,327.992,247.742,363.355,247.742z"/>
	<path style="fill:#6F6571;" d="M237.599,401.203c5.879-2.351,12.07-3.544,18.401-3.544s12.522,1.193,18.402,3.544l5.255,2.102
		l-16.025-38.741c-2.814-6.802-12.449-6.802-15.262,0l-16.025,38.741L237.599,401.203z"/>
	<path style="fill:#C9C6CA;" d="M222.968,512h-16.516v-24.774c0-4.561,3.697-8.258,8.258-8.258h0c4.561,0,8.258,3.697,8.258,8.258
		V512z"/>
	<path style="fill:#C9C6CA;" d="M305.548,512h-16.516v-24.774c0-4.561,3.697-8.258,8.258-8.258h0c4.561,0,8.258,3.697,8.258,8.258
		V512z"/>
	<path style="fill:#C9C6CA;" d="M346.839,512h-16.516v-24.774c0-4.561,3.697-8.258,8.258-8.258l0,0c4.561,0,8.258,3.697,8.258,8.258
		V512z"/>
	<path style="fill:#C9C6CA;" d="M264.258,512h-16.516v-24.774c0-4.561,3.697-8.258,8.258-8.258l0,0c4.561,0,8.258,3.697,8.258,8.258
		V512z"/>
	<path style="fill:#B7B2B8;" d="M181.677,512h-16.516v-24.774c0-4.561,3.697-8.258,8.258-8.258h0c4.561,0,8.258,3.697,8.258,8.258
		V512z"/>
</g>
<g>
</g>
<g>
</g>
<g>
</g>
<g>
</g>
<g>
</g>
<g>
</g>
<g>
</g>
<g>
</g>
<g>
</g>
<g>
</g>
<g>
</g>
<g>
</g>
<g>
</g>
<g>
</g>
<g>
</g>
</svg>
